<svg width="18" height="18" viewBox="0 0 18 18" fill="none" xmlns="http://www.w3.org/2000/svg">
<rect width="18" height="18" fill="#4E4C4C"/>
<g id="Inicio">
<rect x="-1667" y="-661" width="1730" height="1467" rx="16" fill="white"/>
<rect id="Rectangle 201" x="-49" y="-10" width="74" height="38" rx="10" fill="#2F2F2F"/>
<rect id="Rectangle 11" x="-527" y="-31" width="565" height="469" rx="14" fill="#2F2F2F"/>
<g id="Frame">
<path id="Vector" d="M6.1875 3.375L11.8125 9L6.1875 14.625" stroke="white" stroke-width="2" stroke-linecap="round" stroke-linejoin="round"/>
</g>
<path id="Mas" d="M-27.672 14V2.8H-25.688L-22.168 7.984L-18.68 2.8H-16.68V14H-18.536V5.728L-22.184 11.12L-25.816 5.76V14H-27.672ZM-9.48737 14L-9.56737 12.496V9.888C-9.56737 9.344 -9.62604 8.89067 -9.74337 8.528C-9.85004 8.15467 -10.0314 7.872 -10.2874 7.68C-10.5327 7.47733 -10.8634 7.376 -11.2794 7.376C-11.6634 7.376 -11.9994 7.456 -12.2874 7.616C-12.5754 7.776 -12.8207 8.02667 -13.0234 8.368L-14.5914 7.792C-14.4207 7.44 -14.1967 7.11467 -13.9194 6.816C-13.6314 6.50667 -13.274 6.26133 -12.8474 6.08C-12.41 5.89867 -11.8874 5.808 -11.2794 5.808C-10.5007 5.808 -9.85004 5.96267 -9.32737 6.272C-8.80471 6.57067 -8.42071 7.00267 -8.17537 7.568C-7.91937 8.13333 -7.79137 8.816 -7.79137 9.616L-7.83937 14H-9.48737ZM-11.7914 14.192C-12.7514 14.192 -13.498 13.9787 -14.0314 13.552C-14.554 13.1253 -14.8154 12.5227 -14.8154 11.744C-14.8154 10.912 -14.538 10.2773 -13.9834 9.84C-13.418 9.40267 -12.634 9.184 -11.6314 9.184H-9.48737V10.56H-11.0554C-11.77 10.56 -12.2714 10.6613 -12.5594 10.864C-12.8474 11.056 -12.9914 11.3333 -12.9914 11.696C-12.9914 12.0053 -12.8687 12.2507 -12.6234 12.432C-12.3674 12.6027 -12.0154 12.688 -11.5674 12.688C-11.162 12.688 -10.81 12.5973 -10.5114 12.416C-10.2127 12.2347 -9.98337 11.9947 -9.82337 11.696C-9.65271 11.3973 -9.56737 11.0613 -9.56737 10.688H-9.03937C-9.03937 11.776 -9.25804 12.6347 -9.69537 13.264C-10.1327 13.8827 -10.8314 14.192 -11.7914 14.192ZM-3.06475 14.192C-3.59808 14.192 -4.08875 14.112 -4.53675 13.952C-4.98475 13.792 -5.36875 13.568 -5.68875 13.28C-6.00875 12.9813 -6.25408 12.6347 -6.42475 12.24L-4.87275 11.552C-4.71275 11.8507 -4.47808 12.1013 -4.16875 12.304C-3.84875 12.5067 -3.49675 12.608 -3.11275 12.608C-2.69675 12.608 -2.36608 12.5387 -2.12075 12.4C-1.86475 12.2507 -1.73675 12.048 -1.73675 11.792C-1.73675 11.5467 -1.83275 11.36 -2.02475 11.232C-2.21675 11.0933 -2.48875 10.9813 -2.84075 10.896L-3.59275 10.688C-4.35008 10.496 -4.94208 10.192 -5.36875 9.776C-5.79542 9.34933 -6.00875 8.864 -6.00875 8.32C-6.00875 7.52 -5.75275 6.90133 -5.24075 6.464C-4.71808 6.02667 -3.97142 5.808 -3.00075 5.808C-2.51008 5.808 -2.06208 5.88267 -1.65675 6.032C-1.24075 6.17067 -0.883416 6.37333 -0.58475 6.64C-0.286083 6.896 -0.078083 7.2 0.0392504 7.552L-1.44875 8.224C-1.55542 7.95733 -1.75808 7.75467 -2.05675 7.616C-2.35542 7.46667 -2.68608 7.392 -3.04875 7.392C-3.41142 7.392 -3.69408 7.472 -3.89675 7.632C-4.09942 7.78133 -4.20075 7.99467 -4.20075 8.272C-4.20075 8.432 -4.11008 8.58133 -3.92875 8.72C-3.74742 8.848 -3.48608 8.95467 -3.14475 9.04L-2.20075 9.264C-1.67808 9.392 -1.25142 9.59467 -0.92075 9.872C-0.590083 10.1387 -0.34475 10.4427 -0.18475 10.784C-0.0247498 11.1147 0.0552502 11.4507 0.0552502 11.792C0.0552502 12.272 -0.0834165 12.6933 -0.36075 13.056C-0.627416 13.4187 -0.995416 13.7013 -1.46475 13.904C-1.93408 14.096 -2.46742 14.192 -3.06475 14.192Z" fill="white"/>
</g>
</svg>
