<svg width="103" height="104" viewBox="0 0 103 104" fill="none" xmlns="http://www.w3.org/2000/svg">
<path d="M94.4167 51.9998C94.4167 28.0675 75.2021 8.6665 51.5 8.6665C27.7978 8.6665 8.58337 28.0675 8.58337 51.9998C8.58337 75.932 27.7978 95.3332 51.5 95.3332C75.2021 95.3332 94.4167 75.932 94.4167 51.9998Z" stroke="#645077" stroke-width="5"/>
<path d="M53.2226 35.958L65.7539 31.7403C69.5572 30.4602 71.4592 29.8201 72.463 30.8337C73.4669 31.8474 72.833 33.7675 71.5648 37.6079L67.3877 50.2608C65.2273 56.805 64.1471 60.0771 61.8231 62.4236C59.4992 64.7701 56.2586 65.8608 49.7773 68.0422L37.2461 72.2598C33.4427 73.5403 31.5409 74.1803 30.5371 73.1668C29.5332 72.1532 30.1671 70.2327 31.4349 66.3925L35.612 53.7396C37.7725 47.1954 38.8527 43.9233 41.1767 41.5766C43.5007 39.2301 46.7414 38.1394 53.2226 35.958Z" stroke="#645077" stroke-width="5" stroke-linecap="round" stroke-linejoin="round"/>
<path d="M51.4989 52L51.4725 52.0263" stroke="#645077" stroke-width="5" stroke-linecap="round" stroke-linejoin="round"/>
</svg>
