<svg width="16" height="16" viewBox="0 0 16 16" fill="none" xmlns="http://www.w3.org/2000/svg">
<path d="M1.33331 3L5.94199 5.61131C7.64105 6.574 8.35891 6.574 10.058 5.61131L14.6666 3" stroke="#959595" stroke-width="1.5" stroke-linejoin="round"/>
<path d="M1.34383 7.9839C1.38741 10.0276 1.4092 11.0494 2.16329 11.8064C2.91737 12.5634 3.96687 12.5897 6.06587 12.6424C7.35951 12.675 8.64045 12.675 9.93411 12.6424C12.0331 12.5897 13.0826 12.5634 13.8367 11.8064C14.5908 11.0494 14.6126 10.0276 14.6561 7.9839C14.6702 7.32676 14.6702 6.67356 14.6561 6.01643C14.6126 3.97274 14.5908 2.95089 13.8367 2.19394C13.0826 1.43698 12.0331 1.41062 9.93411 1.35788C8.64045 1.32537 7.35951 1.32537 6.06586 1.35787C3.96687 1.4106 2.91737 1.43697 2.16328 2.19393C1.40919 2.95088 1.38741 3.97273 1.34382 6.01643C1.32981 6.67356 1.32981 7.32676 1.34383 7.9839Z" stroke="#959595" stroke-width="1.5" stroke-linejoin="round"/>
</svg>
