<svg width="110" height="49" viewBox="0 0 110 49" fill="none" xmlns="http://www.w3.org/2000/svg">
<rect x="0.75" y="0.75" width="108.5" height="47.5" rx="4.25" fill="#F1D9D9" stroke="#D38C8C" stroke-width="1.5" stroke-linecap="round"/>
<g clip-path="url(#clip0_2223_3167)">
<path d="M46 18.113C46 17.5603 46 17.284 46.0429 17.0537C46.233 16.0331 47.0256 15.2347 48.0389 15.0432C48.2674 15 48.5418 15 49.0905 15H60.9095C61.4582 15 61.7325 15 61.9611 15.0432C62.9743 15.2347 63.767 16.0331 63.9571 17.0537C64 17.284 64 17.5603 64 18.113C64 18.6552 64 18.9263 63.9685 19.1777C63.8309 20.2754 63.2512 21.2678 62.3654 21.9221C62.1625 22.0719 61.9272 22.2036 61.4566 22.4669L58.8851 23.9059C56.9861 24.9686 56.0365 25.5 55 25.5C53.9635 25.5 53.0139 24.9686 51.1149 23.9059L48.5434 22.4669C48.0728 22.2036 47.8375 22.0719 47.6347 21.9221C46.7489 21.2678 46.1691 20.2754 46.0315 19.1777C46 18.9263 46 18.6552 46 18.113Z" stroke="#A0A0A0" stroke-width="1.5" stroke-linecap="round"/>
<path d="M51 18V19M55 18V21M59 18V19" stroke="#A0A0A0" stroke-width="1.5" stroke-linecap="round"/>
<path d="M55.7774 26.6499L56.5693 28.2468C56.6773 28.4691 56.9653 28.6823 57.2083 28.7231L58.6436 28.9636C59.5615 29.1178 59.7775 29.7893 59.1161 30.4516L58.0002 31.5767C57.8112 31.7673 57.7077 32.1347 57.7662 32.3979L58.0857 33.7906C58.3377 34.893 57.7572 35.3195 56.7898 34.7433L55.4445 33.9403C55.2015 33.7952 54.801 33.7952 54.5536 33.9403L53.2082 34.7433C52.2453 35.3195 51.6604 34.8885 51.9124 33.7906L52.2318 32.3979C52.2903 32.1347 52.1868 31.7673 51.9978 31.5767L50.882 30.4516C50.225 29.7893 50.4365 29.1178 51.3544 28.9636L52.7898 28.7231C53.0282 28.6823 53.3162 28.4691 53.4242 28.2468L54.2161 26.6499C54.6481 25.7834 55.35 25.7834 55.7774 26.6499Z" stroke="#A0A0A0" stroke-width="1.5" stroke-linecap="round" stroke-linejoin="round"/>
<path d="M46 18.113C46 17.5603 46 17.284 46.0429 17.0537C46.233 16.0331 47.0256 15.2347 48.0389 15.0432C48.2674 15 48.5418 15 49.0905 15H60.9095C61.4582 15 61.7325 15 61.9611 15.0432C62.9743 15.2347 63.767 16.0331 63.9571 17.0537C64 17.284 64 17.5603 64 18.113C64 18.6552 64 18.9263 63.9685 19.1777C63.8309 20.2754 63.2512 21.2678 62.3654 21.9221C62.1625 22.0719 61.9272 22.2036 61.4566 22.4669L58.8851 23.9059C56.9861 24.9686 56.0365 25.5 55 25.5C53.9635 25.5 53.0139 24.9686 51.1149 23.9059L48.5434 22.4669C48.0728 22.2036 47.8375 22.0719 47.6347 21.9221C46.7489 21.2678 46.1691 20.2754 46.0315 19.1777C46 18.9263 46 18.6552 46 18.113Z" stroke="#B26868" stroke-width="1.5" stroke-linecap="round"/>
<path d="M51 18V19M55 18V21M59 18V19" stroke="#B26868" stroke-width="1.5" stroke-linecap="round"/>
<path d="M55.7774 26.6499L56.5693 28.2468C56.6773 28.4691 56.9653 28.6823 57.2083 28.7231L58.6436 28.9636C59.5615 29.1178 59.7775 29.7893 59.1161 30.4516L58.0002 31.5767C57.8112 31.7673 57.7077 32.1347 57.7662 32.3979L58.0857 33.7906C58.3377 34.893 57.7572 35.3195 56.7898 34.7433L55.4445 33.9403C55.2015 33.7952 54.801 33.7952 54.5536 33.9403L53.2082 34.7433C52.2453 35.3195 51.6604 34.8885 51.9124 33.7906L52.2318 32.3979C52.2903 32.1347 52.1868 31.7673 51.9978 31.5767L50.882 30.4516C50.225 29.7893 50.4365 29.1178 51.3544 28.9636L52.7898 28.7231C53.0282 28.6823 53.3162 28.4691 53.4242 28.2468L54.2161 26.6499C54.6481 25.7834 55.35 25.7834 55.7774 26.6499Z" stroke="#B26868" stroke-width="1.5" stroke-linecap="round" stroke-linejoin="round"/>
</g>
<defs>
<clipPath id="clip0_2223_3167">
<rect width="24" height="24" fill="white" transform="translate(43 13)"/>
</clipPath>
</defs>
</svg>
