<svg width="52" height="52" viewBox="0 0 52 52" fill="none" xmlns="http://www.w3.org/2000/svg">
<circle cx="26" cy="26" r="25" fill="#E9EBE9" stroke="#B9B9B9" stroke-width="1.5" stroke-linecap="round" stroke-linejoin="round" stroke-dasharray="4 4"/>
<path d="M17 20.113C17 19.5603 17 19.284 17.0429 19.0537C17.233 18.0331 18.0256 17.2347 19.0389 17.0432C19.2674 17 19.5418 17 20.0905 17H31.9095C32.4582 17 32.7325 17 32.9611 17.0432C33.9743 17.2347 34.767 18.0331 34.9571 19.0537C35 19.284 35 19.5603 35 20.113C35 20.6552 35 20.9263 34.9685 21.1777C34.8309 22.2754 34.2512 23.2678 33.3654 23.9221C33.1625 24.0719 32.9272 24.2036 32.4566 24.4669L29.8851 25.9059C27.9861 26.9686 27.0365 27.5 26 27.5C24.9635 27.5 24.0139 26.9686 22.1149 25.9059L19.5434 24.4669C19.0728 24.2036 18.8375 24.0719 18.6347 23.9221C17.7489 23.2678 17.1691 22.2754 17.0315 21.1777C17 20.9263 17 20.6552 17 20.113Z" stroke="#A0A0A0" stroke-width="1.5" stroke-linecap="round"/>
<path d="M22 20V21M26 20V23M30 20V21" stroke="#A0A0A0" stroke-width="1.5" stroke-linecap="round"/>
<path d="M26.7774 28.6499L27.5693 30.2468C27.6773 30.4691 27.9653 30.6823 28.2083 30.7231L29.6436 30.9636C30.5615 31.1178 30.7775 31.7893 30.1161 32.4516L29.0002 33.5767C28.8112 33.7673 28.7077 34.1347 28.7662 34.3979L29.0857 35.7906C29.3377 36.893 28.7572 37.3195 27.7898 36.7433L26.4445 35.9403C26.2015 35.7952 25.801 35.7952 25.5536 35.9403L24.2082 36.7433C23.2453 37.3195 22.6604 36.8885 22.9124 35.7906L23.2318 34.3979C23.2903 34.1347 23.1868 33.7673 22.9978 33.5767L21.882 32.4516C21.225 31.7893 21.4365 31.1178 22.3544 30.9636L23.7898 30.7231C24.0282 30.6823 24.3162 30.4691 24.4242 30.2468L25.2161 28.6499C25.6481 27.7834 26.35 27.7834 26.7774 28.6499Z" stroke="#A0A0A0" stroke-width="1.5" stroke-linecap="round" stroke-linejoin="round"/>
</svg>
