<svg width="50" height="50" viewBox="0 0 50 50" fill="none" xmlns="http://www.w3.org/2000/svg">
<circle cx="25" cy="25" r="24.25" fill="#F1D9D9" stroke="#D38C8C" stroke-width="1.5"/>
<path d="M16 19.113C16 18.5603 16 18.284 16.0429 18.0537C16.233 17.0331 17.0256 16.2347 18.0389 16.0432C18.2674 16 18.5418 16 19.0905 16H30.9095C31.4582 16 31.7325 16 31.9611 16.0432C32.9743 16.2347 33.767 17.0331 33.9571 18.0537C34 18.284 34 18.5603 34 19.113C34 19.6552 34 19.9263 33.9685 20.1777C33.8309 21.2754 33.2512 22.2678 32.3654 22.9221C32.1625 23.0719 31.9272 23.2036 31.4566 23.4669L28.8851 24.9059C26.9861 25.9686 26.0365 26.5 25 26.5C23.9635 26.5 23.0139 25.9686 21.1149 24.9059L18.5434 23.4669C18.0728 23.2036 17.8375 23.0719 17.6347 22.9221C16.7489 22.2678 16.1691 21.2754 16.0315 20.1777C16 19.9263 16 19.6552 16 19.113Z" stroke="#B26868" stroke-width="1.5" stroke-linecap="round"/>
<path d="M21 19V20M25 19V22M29 19V20" stroke="#B26868" stroke-width="1.5" stroke-linecap="round"/>
<path d="M25.7774 27.6499L26.5693 29.2468C26.6773 29.4691 26.9653 29.6823 27.2083 29.7231L28.6436 29.9636C29.5615 30.1178 29.7775 30.7893 29.1161 31.4516L28.0002 32.5767C27.8112 32.7673 27.7077 33.1347 27.7662 33.3979L28.0857 34.7906C28.3377 35.893 27.7572 36.3195 26.7898 35.7433L25.4445 34.9403C25.2015 34.7952 24.801 34.7952 24.5536 34.9403L23.2082 35.7433C22.2453 36.3195 21.6604 35.8885 21.9124 34.7906L22.2318 33.3979C22.2903 33.1347 22.1868 32.7673 21.9978 32.5767L20.882 31.4516C20.225 30.7893 20.4365 30.1178 21.3544 29.9636L22.7898 29.7231C23.0282 29.6823 23.3162 29.4691 23.4242 29.2468L24.2161 27.6499C24.6481 26.7834 25.35 26.7834 25.7774 27.6499Z" stroke="#B26868" stroke-width="1.5" stroke-linecap="round" stroke-linejoin="round"/>
</svg>
