<svg width="92" height="93" viewBox="0 0 92 93" fill="none" xmlns="http://www.w3.org/2000/svg">
<g clip-path="url(#clip0_118_2850)">
<path fill-rule="evenodd" clip-rule="evenodd" d="M77.4279 79.8648C81.9834 75.5842 85.6126 70.4148 88.091 64.676C90.5695 58.9372 91.8445 52.751 91.8372 46.4999C91.8372 21.1836 71.3162 0.662598 45.9999 0.662598C20.6836 0.662598 0.162628 21.1836 0.162628 46.4999C0.155395 52.751 1.4304 58.9372 3.90883 64.676C6.38726 70.4148 10.0164 75.5842 14.572 79.8648C23.0669 87.8893 34.3142 92.3529 45.9999 92.3372C57.6857 92.3529 68.933 87.8893 77.4279 79.8648ZM18.474 73.8236C21.7747 69.6943 25.9632 66.3615 30.7285 64.0728C35.4938 61.7842 40.7135 60.5984 45.9999 60.6037C51.2863 60.5984 56.506 61.7842 61.2713 64.0728C66.0367 66.3615 70.2252 69.6943 73.5258 73.8236C69.9248 77.461 65.6373 80.3472 60.9122 82.3147C56.1871 84.2822 51.1183 85.2919 45.9999 85.2853C40.8815 85.2919 35.8128 84.2822 31.0877 82.3147C26.3625 80.3472 22.0751 77.461 18.474 73.8236ZM63.6297 32.3961C63.6297 37.0718 61.7723 41.556 58.466 44.8622C55.1598 48.1684 50.6756 50.0259 45.9999 50.0259C41.3242 50.0259 36.84 48.1684 33.5338 44.8622C30.2276 41.556 28.3702 37.0718 28.3702 32.3961C28.3702 27.7204 30.2276 23.2362 33.5338 19.93C36.84 16.6238 41.3242 14.7664 45.9999 14.7664C50.6756 14.7664 55.1598 16.6238 58.466 19.93C61.7723 23.2362 63.6297 27.7204 63.6297 32.3961Z" fill="#AAAAAA"/>
</g>
<defs>
<clipPath id="clip0_118_2850">
<rect width="91.6747" height="91.6747" fill="white" transform="translate(0.162598 0.662598)"/>
</clipPath>
</defs>
</svg>
