<svg width="16" height="16" viewBox="0 0 16 16" fill="none" xmlns="http://www.w3.org/2000/svg">
<path d="M8 10.9998V9.6665" stroke="#959595" stroke-width="1.5" stroke-linecap="round"/>
<path d="M2.84523 12.5631C2.99515 13.6767 3.91744 14.549 5.03979 14.6006C5.9842 14.644 6.94356 14.6667 8.00003 14.6667C9.05649 14.6667 10.0158 14.644 10.9602 14.6006C12.0826 14.549 13.0049 13.6767 13.1548 12.5631C13.2526 11.8365 13.3334 11.0917 13.3334 10.3333C13.3334 9.57493 13.2526 8.8302 13.1548 8.10353C13.0049 6.99 12.0826 6.11766 10.9602 6.06606C10.0158 6.02265 9.05649 6 8.00003 6C6.94356 6 5.9842 6.02265 5.03979 6.06606C3.91744 6.11766 2.99515 6.99 2.84523 8.10353C2.74739 8.8302 2.66669 9.57493 2.66669 10.3333C2.66669 11.0917 2.74739 11.8365 2.84523 12.5631Z" stroke="#959595" stroke-width="1.5"/>
<path d="M5 6.00016V4.3335C5 2.67664 6.34315 1.3335 8 1.3335C9.65687 1.3335 11 2.67664 11 4.3335V6.00016" stroke="#959595" stroke-width="1.5" stroke-linecap="round" stroke-linejoin="round"/>
</svg>
