<svg width="69" height="69" viewBox="0 0 69 69" fill="none" xmlns="http://www.w3.org/2000/svg">
<path d="M30.1875 25.1562V19.4062C30.1875 14.6805 30.1875 12.3176 28.8822 10.7272C28.6434 10.4361 28.3764 10.1691 28.0853 9.93019C26.4949 8.625 24.132 8.625 19.4062 8.625C14.6805 8.625 12.3176 8.625 10.7272 9.93019C10.4361 10.1691 10.1691 10.4361 9.93019 10.7272C8.625 12.3176 8.625 14.6805 8.625 19.4062V25.1562C8.625 29.8819 8.625 32.2449 9.93019 33.8353C10.1691 34.1265 10.4361 34.3933 10.7272 34.6322C12.3176 35.9375 14.6805 35.9375 19.4062 35.9375C24.132 35.9375 26.4949 35.9375 28.0853 34.6322C28.3764 34.3933 28.6434 34.1265 28.8822 33.8353C30.1875 32.2449 30.1875 29.8819 30.1875 25.1562Z" fill="#A7A7A7" stroke="#A7A7A7" stroke-width="3" stroke-linejoin="round"/>
<path d="M22.2812 44.5625H16.5312C14.5251 44.5625 13.5221 44.5625 12.7059 44.81C10.8682 45.3675 9.43006 46.8056 8.87259 48.6433C8.625 49.4595 8.625 50.4626 8.625 52.4687C8.625 54.4749 8.625 55.478 8.87259 56.2942C9.43006 58.1319 10.8682 59.57 12.7059 60.1275C13.5221 60.375 14.5251 60.375 16.5312 60.375H22.2812C24.2874 60.375 25.2904 60.375 26.1066 60.1275C27.9443 59.57 29.3825 58.1319 29.94 56.2942C30.1875 55.478 30.1875 54.4749 30.1875 52.4687C30.1875 50.4626 30.1875 49.4595 29.94 48.6433C29.3825 46.8056 27.9443 45.3675 26.1066 44.81C25.2904 44.5625 24.2874 44.5625 22.2812 44.5625Z" fill="#A7A7A7" stroke="#A7A7A7" stroke-width="3" stroke-linejoin="round"/>
<path d="M60.375 49.5938V43.8438C60.375 39.1181 60.375 36.7552 59.0697 35.1647C58.8308 34.8735 58.564 34.6067 58.2728 34.3678C56.6824 33.0625 54.3194 33.0625 49.5938 33.0625C44.8681 33.0625 42.5052 33.0625 40.9147 34.3678C40.6235 34.6067 40.3567 34.8735 40.1178 35.1647C38.8125 36.7552 38.8125 39.1181 38.8125 43.8438V49.5938C38.8125 54.3194 38.8125 56.6824 40.1178 58.2728C40.3567 58.564 40.6235 58.8308 40.9147 59.0697C42.5052 60.375 44.8681 60.375 49.5938 60.375C54.3194 60.375 56.6824 60.375 58.2728 59.0697C58.564 58.8308 58.8308 58.564 59.0697 58.2728C60.375 56.6824 60.375 54.3194 60.375 49.5938Z" fill="#A7A7A7" stroke="#A7A7A7" stroke-width="3" stroke-linejoin="round"/>
<path d="M52.4688 8.625H46.7188C44.7126 8.625 43.7095 8.625 42.8933 8.87259C41.0556 9.43006 39.6175 10.8682 39.06 12.7059C38.8125 13.5221 38.8125 14.5251 38.8125 16.5312C38.8125 18.5374 38.8125 19.5404 39.06 20.3566C39.6175 22.1943 41.0556 23.6324 42.8933 24.1899C43.7095 24.4375 44.7126 24.4375 46.7188 24.4375H52.4688C54.4749 24.4375 55.478 24.4375 56.2942 24.1899C58.1319 23.6324 59.57 22.1943 60.1275 20.3566C60.375 19.5404 60.375 18.5374 60.375 16.5312C60.375 14.5251 60.375 13.5221 60.1275 12.7059C59.57 10.8682 58.1319 9.43006 56.2942 8.87259C55.478 8.625 54.4749 8.625 52.4688 8.625Z" fill="#A7A7A7" stroke="#A7A7A7" stroke-width="3" stroke-linejoin="round"/>
</svg>
