<svg width="112" height="51" viewBox="0 0 112 51" fill="none" xmlns="http://www.w3.org/2000/svg">
<rect x="1" y="1" width="110" height="49" rx="5" fill="#E9EBE9" stroke="#B9B9B9" stroke-width="1.5" stroke-linecap="round" stroke-dasharray="5 5"/>
<path d="M47 19.113C47 18.5603 47 18.284 47.0429 18.0537C47.233 17.0331 48.0256 16.2347 49.0389 16.0432C49.2674 16 49.5418 16 50.0905 16H61.9095C62.4582 16 62.7325 16 62.9611 16.0432C63.9743 16.2347 64.767 17.0331 64.9571 18.0537C65 18.284 65 18.5603 65 19.113C65 19.6552 65 19.9263 64.9685 20.1777C64.8309 21.2754 64.2512 22.2678 63.3654 22.9221C63.1625 23.0719 62.9272 23.2036 62.4566 23.4669L59.8851 24.9059C57.9861 25.9686 57.0365 26.5 56 26.5C54.9635 26.5 54.0139 25.9686 52.1149 24.9059L49.5434 23.4669C49.0728 23.2036 48.8375 23.0719 48.6347 22.9221C47.7489 22.2678 47.1691 21.2754 47.0315 20.1777C47 19.9263 47 19.6552 47 19.113Z" stroke="#A0A0A0" stroke-width="1.5" stroke-linecap="round"/>
<path d="M52 19V20M56 19V22M60 19V20" stroke="#A0A0A0" stroke-width="1.5" stroke-linecap="round"/>
<path d="M56.7774 27.6499L57.5693 29.2468C57.6773 29.4691 57.9653 29.6823 58.2083 29.7231L59.6436 29.9636C60.5615 30.1178 60.7775 30.7893 60.1161 31.4516L59.0002 32.5767C58.8112 32.7673 58.7077 33.1347 58.7662 33.3979L59.0857 34.7906C59.3377 35.893 58.7572 36.3195 57.7898 35.7433L56.4445 34.9403C56.2015 34.7952 55.801 34.7952 55.5536 34.9403L54.2082 35.7433C53.2453 36.3195 52.6604 35.8885 52.9124 34.7906L53.2318 33.3979C53.2903 33.1347 53.1868 32.7673 52.9978 32.5767L51.882 31.4516C51.225 30.7893 51.4365 30.1178 52.3544 29.9636L53.7898 29.7231C54.0282 29.6823 54.3162 29.4691 54.4242 29.2468L55.2161 27.6499C55.6481 26.7834 56.35 26.7834 56.7774 27.6499Z" stroke="#A0A0A0" stroke-width="1.5" stroke-linecap="round" stroke-linejoin="round"/>
</svg>
