<svg width="128" height="128" viewBox="0 0 128 128" fill="none" xmlns="http://www.w3.org/2000/svg">
<path d="M90.9813 82.7787C93.4762 81.0749 96.4025 80.1124 99.4217 80.0023C102.441 79.8923 105.429 80.6393 108.042 82.1569C110.654 83.6745 112.783 85.9007 114.183 88.578C115.583 91.2552 116.196 94.2741 115.952 97.2853C109.553 99.5218 102.756 100.392 96 99.84C95.9793 93.7953 94.2386 87.8761 90.9813 82.784C88.0902 78.2495 84.102 74.5175 79.3858 71.9334C74.6696 69.3492 69.3778 67.9963 64 68C58.6231 67.9972 53.3324 69.3505 48.6172 71.9346C43.902 74.5188 39.9147 78.2503 37.024 82.784M95.9947 99.8347L96 100C96 101.2 95.936 102.384 95.8027 103.552C86.1246 109.105 75.1578 112.018 64 112C52.4267 112 41.5627 108.928 32.1973 103.552C32.0602 102.318 31.9943 101.077 32 99.8347M32 99.8347C25.246 100.407 18.4528 99.5397 12.0587 97.2907C11.8152 94.2803 12.4288 91.2624 13.8284 88.5861C15.2281 85.9098 17.3566 83.6842 19.968 82.1668C22.5794 80.6494 25.5669 79.9021 28.5852 80.0114C31.6034 80.1206 34.5291 81.0818 37.024 82.784M32 99.8347C32.0192 93.7905 33.7687 87.8766 37.024 82.784M80 36C80 40.2435 78.3143 44.3131 75.3137 47.3137C72.3131 50.3143 68.2435 52 64 52C59.7565 52 55.6869 50.3143 52.6863 47.3137C49.6857 44.3131 48 40.2435 48 36C48 31.7565 49.6857 27.6869 52.6863 24.6863C55.6869 21.6857 59.7565 20 64 20C68.2435 20 72.3131 21.6857 75.3137 24.6863C78.3143 27.6869 80 31.7565 80 36ZM112 52C112 53.5759 111.69 55.1363 111.087 56.5922C110.484 58.0481 109.6 59.371 108.485 60.4853C107.371 61.5996 106.048 62.4835 104.592 63.0866C103.136 63.6896 101.576 64 100 64C98.4241 64 96.8637 63.6896 95.4078 63.0866C93.9519 62.4835 92.629 61.5996 91.5147 60.4853C90.4004 59.371 89.5165 58.0481 88.9135 56.5922C88.3104 55.1363 88 53.5759 88 52C88 48.8174 89.2643 45.7652 91.5147 43.5147C93.7652 41.2643 96.8174 40 100 40C103.183 40 106.235 41.2643 108.485 43.5147C110.736 45.7652 112 48.8174 112 52ZM40 52C40 53.5759 39.6896 55.1363 39.0866 56.5922C38.4835 58.0481 37.5996 59.371 36.4853 60.4853C35.371 61.5996 34.0481 62.4835 32.5922 63.0866C31.1363 63.6896 29.5759 64 28 64C26.4241 64 24.8637 63.6896 23.4078 63.0866C21.9519 62.4835 20.629 61.5996 19.5147 60.4853C18.4004 59.371 17.5165 58.0481 16.9134 56.5922C16.3104 55.1363 16 53.5759 16 52C16 48.8174 17.2643 45.7652 19.5147 43.5147C21.7652 41.2643 24.8174 40 28 40C31.1826 40 34.2348 41.2643 36.4853 43.5147C38.7357 45.7652 40 48.8174 40 52Z" stroke="#645077" stroke-width="6" stroke-linecap="round" stroke-linejoin="round"/>
</svg>
