<svg width="16" height="16" viewBox="0 0 16 16" fill="none" xmlns="http://www.w3.org/2000/svg">
<path d="M11.3337 1.33333V2.66666M8.00033 1.33333V2.66666M4.66699 1.33333V2.66666" stroke="#E5E5E5" stroke-linecap="round" stroke-linejoin="round"/>
<path d="M2.33301 6.66667C2.33301 4.46678 2.33301 3.36683 3.01643 2.68342C3.69984 2 4.79979 2 6.99967 2H8.99967C11.1995 2 12.2995 2 12.9829 2.68342C13.6663 3.36683 13.6663 4.46678 13.6663 6.66667V10C13.6663 12.1999 13.6663 13.2998 12.9829 13.9833C12.2995 14.6667 11.1995 14.6667 8.99967 14.6667H6.99967C4.79979 14.6667 3.69984 14.6667 3.01643 13.9833C2.33301 13.2998 2.33301 12.1999 2.33301 10V6.66667Z" stroke="#E5E5E5" stroke-linecap="round" stroke-linejoin="round"/>
<path d="M9 10.6667H11.3333" stroke="#E5E5E5" stroke-linecap="round"/>
<path d="M9 6H11.3333" stroke="#E5E5E5" stroke-linecap="round"/>
<path d="M4.66699 6.66666C4.66699 6.66666 5.00033 6.66666 5.33366 7.33333C5.33366 7.33333 6.39249 5.66666 7.33366 5.33333" stroke="#E5E5E5" stroke-linecap="round" stroke-linejoin="round"/>
<path d="M4.66699 11.3333C4.66699 11.3333 5.00033 11.3333 5.33366 12C5.33366 12 6.39249 10.3333 7.33366 10" stroke="#E5E5E5" stroke-linecap="round" stroke-linejoin="round"/>
</svg>
