<svg width="16" height="16" viewBox="0 0 16 16" fill="none" xmlns="http://www.w3.org/2000/svg">
<path d="M12.0005 3.28735C12.0944 3.28574 12.1878 3.30297 12.2749 3.33813C12.362 3.37331 12.4409 3.42605 12.5073 3.49243C12.5738 3.5589 12.6264 3.63867 12.6616 3.72583C12.6967 3.81288 12.7141 3.9064 12.7124 4.00024C12.7107 4.09411 12.6901 4.18694 12.6519 4.27271C12.6146 4.35629 12.5599 4.43036 12.4937 4.49341L12.4946 4.49438L8.98877 7.99927L12.4946 11.5051H12.4937C12.5604 11.5684 12.6144 11.6438 12.6519 11.7278C12.6901 11.8136 12.7107 11.9063 12.7124 12.0002C12.714 12.0942 12.6968 12.1875 12.6616 12.2747C12.6264 12.3618 12.5737 12.4406 12.5073 12.5071C12.4409 12.5735 12.362 12.6262 12.2749 12.6614C12.1878 12.6965 12.0944 12.7138 12.0005 12.7122C11.9066 12.7105 11.8138 12.6898 11.728 12.6516C11.644 12.6142 11.5686 12.5601 11.5054 12.4934V12.4944L7.99951 8.98853L4.49463 12.4944L4.48975 12.5002L4.48877 12.4993C4.35619 12.6227 4.18158 12.6909 4.00049 12.6877C3.81914 12.6845 3.64534 12.6109 3.51709 12.4827C3.38902 12.3545 3.31628 12.1814 3.31299 12.0002C3.30979 11.8189 3.37684 11.6427 3.50049 11.51L3.50537 11.5051L7.01025 7.99927L3.50537 4.49438C3.37438 4.36319 3.30035 4.18563 3.30029 4.00024C3.30029 3.81474 3.37428 3.63638 3.50537 3.50513L3.61182 3.41821C3.72597 3.3421 3.86126 3.30005 4.00049 3.30005C4.1858 3.30017 4.36349 3.37419 4.49463 3.50513L7.99951 7.01001L11.5054 3.50513C11.5685 3.43879 11.6444 3.38518 11.728 3.3479C11.8138 3.30976 11.9067 3.28901 12.0005 3.28735Z" fill="#959595" stroke="#959595" stroke-width="0.4"/>
</svg>
